<mxfile host="app.diagrams.net" modified="2023-12-07T14:29:58.126Z" agent="Mozilla/5.0 (Windows NT 10.0; Win64; x64) AppleWebKit/537.36 (KHTML, like Gecko) Chrome/119.0.0.0 Safari/537.36" etag="TaRzDQ4vWB03FA_bac5H" version="22.1.7" type="device">
  <diagram id="C5RBs43oDa-KdzZeNtuy" name="Page-1">
    <mxGraphModel dx="880" dy="446" grid="1" gridSize="10" guides="1" tooltips="1" connect="1" arrows="1" fold="1" page="1" pageScale="1" pageWidth="827" pageHeight="1169" background="#000000" math="0" shadow="0">
      <root>
        <mxCell id="WIyWlLk6GJQsqaUBKTNV-0" />
        <mxCell id="WIyWlLk6GJQsqaUBKTNV-1" parent="WIyWlLk6GJQsqaUBKTNV-0" />
        <mxCell id="wWsB43tYdhF1dsKAu8T7-9" value="" style="edgeStyle=orthogonalEdgeStyle;rounded=1;orthogonalLoop=1;jettySize=auto;html=1;labelBackgroundColor=none;strokeColor=#FFFFFF;fontColor=#FFFFFF;" parent="WIyWlLk6GJQsqaUBKTNV-1" source="wWsB43tYdhF1dsKAu8T7-1" target="wWsB43tYdhF1dsKAu8T7-8" edge="1">
          <mxGeometry relative="1" as="geometry" />
        </mxCell>
        <mxCell id="wWsB43tYdhF1dsKAu8T7-1" value="&lt;font style=&quot;font-size: 18px;&quot;&gt;Start&lt;/font&gt;" style="html=1;dashed=0;whiteSpace=wrap;shape=mxgraph.dfd.start;rounded=1;labelBackgroundColor=none;fillColor=#F45B69;strokeColor=#FFFFFF;fontColor=#FFFFFF;" parent="WIyWlLk6GJQsqaUBKTNV-1" vertex="1">
          <mxGeometry x="367" y="80" width="90" height="30" as="geometry" />
        </mxCell>
        <mxCell id="ta6XSB1Axet3nMUNqBAB-6" value="" style="edgeStyle=orthogonalEdgeStyle;rounded=0;orthogonalLoop=1;jettySize=auto;html=1;strokeColor=#FFFFFF;" edge="1" parent="WIyWlLk6GJQsqaUBKTNV-1" source="wWsB43tYdhF1dsKAu8T7-8" target="ta6XSB1Axet3nMUNqBAB-5">
          <mxGeometry relative="1" as="geometry" />
        </mxCell>
        <mxCell id="wWsB43tYdhF1dsKAu8T7-8" value="&lt;font style=&quot;font-size: 18px;&quot;&gt;Barang yg di Beli&lt;/font&gt;" style="whiteSpace=wrap;html=1;dashed=0;rounded=1;labelBackgroundColor=none;fillColor=#F45B69;strokeColor=#FFFFFF;fontColor=#FFFFFF;" parent="WIyWlLk6GJQsqaUBKTNV-1" vertex="1">
          <mxGeometry x="352" y="158" width="120" height="60" as="geometry" />
        </mxCell>
        <mxCell id="ta6XSB1Axet3nMUNqBAB-12" style="edgeStyle=orthogonalEdgeStyle;rounded=0;orthogonalLoop=1;jettySize=auto;html=1;strokeColor=#FFFFFF;entryX=1;entryY=0.5;entryDx=0;entryDy=0;" edge="1" parent="WIyWlLk6GJQsqaUBKTNV-1" source="wWsB43tYdhF1dsKAu8T7-20" target="ta6XSB1Axet3nMUNqBAB-5">
          <mxGeometry relative="1" as="geometry">
            <mxPoint x="539" y="289" as="targetPoint" />
            <Array as="points">
              <mxPoint x="540" y="699" />
              <mxPoint x="540" y="297" />
            </Array>
          </mxGeometry>
        </mxCell>
        <mxCell id="ta6XSB1Axet3nMUNqBAB-15" value="" style="edgeStyle=orthogonalEdgeStyle;rounded=0;orthogonalLoop=1;jettySize=auto;html=1;strokeColor=#FFFFFF;" edge="1" parent="WIyWlLk6GJQsqaUBKTNV-1" source="wWsB43tYdhF1dsKAu8T7-20" target="ta6XSB1Axet3nMUNqBAB-13">
          <mxGeometry relative="1" as="geometry" />
        </mxCell>
        <mxCell id="wWsB43tYdhF1dsKAu8T7-20" value="&lt;span style=&quot;font-size: 18px;&quot;&gt;Apakah ada tambahan?&lt;/span&gt;" style="rhombus;whiteSpace=wrap;html=1;dashed=0;rounded=1;labelBackgroundColor=none;fillColor=#F45B69;strokeColor=#FFFFFF;fontColor=#FFFFFF;" parent="WIyWlLk6GJQsqaUBKTNV-1" vertex="1">
          <mxGeometry x="339.5" y="629" width="145" height="140" as="geometry" />
        </mxCell>
        <mxCell id="wWsB43tYdhF1dsKAu8T7-31" value="&lt;font style=&quot;font-size: 18px;&quot;&gt;Ada&lt;/font&gt;" style="text;html=1;strokeColor=none;fillColor=none;align=center;verticalAlign=middle;whiteSpace=wrap;rounded=1;labelBackgroundColor=none;fontColor=#FFFFFF;" parent="WIyWlLk6GJQsqaUBKTNV-1" vertex="1">
          <mxGeometry x="479.5" y="669" width="60" height="30" as="geometry" />
        </mxCell>
        <mxCell id="wWsB43tYdhF1dsKAu8T7-33" value="&lt;font style=&quot;font-size: 18px;&quot;&gt;End&lt;/font&gt;" style="html=1;dashed=0;whiteSpace=wrap;shape=mxgraph.dfd.start;rounded=1;labelBackgroundColor=none;fillColor=#F45B69;strokeColor=#FFFFFF;fontColor=#FFFFFF;" parent="WIyWlLk6GJQsqaUBKTNV-1" vertex="1">
          <mxGeometry x="367" y="1034" width="90" height="30" as="geometry" />
        </mxCell>
        <mxCell id="wWsB43tYdhF1dsKAu8T7-49" value="Total Pembelian" style="text;strokeColor=none;fillColor=none;html=1;fontSize=24;fontStyle=1;verticalAlign=middle;align=center;fontColor=#FF66B3;" parent="WIyWlLk6GJQsqaUBKTNV-1" vertex="1">
          <mxGeometry x="167" y="10" width="490" height="50" as="geometry" />
        </mxCell>
        <mxCell id="ta6XSB1Axet3nMUNqBAB-9" value="" style="edgeStyle=orthogonalEdgeStyle;rounded=0;orthogonalLoop=1;jettySize=auto;html=1;strokeColor=#FFFFFF;" edge="1" parent="WIyWlLk6GJQsqaUBKTNV-1" source="ta6XSB1Axet3nMUNqBAB-5" target="ta6XSB1Axet3nMUNqBAB-7">
          <mxGeometry relative="1" as="geometry" />
        </mxCell>
        <mxCell id="ta6XSB1Axet3nMUNqBAB-14" style="edgeStyle=orthogonalEdgeStyle;rounded=0;orthogonalLoop=1;jettySize=auto;html=1;strokeColor=#FFFFFF;" edge="1" parent="WIyWlLk6GJQsqaUBKTNV-1" source="ta6XSB1Axet3nMUNqBAB-5" target="ta6XSB1Axet3nMUNqBAB-13">
          <mxGeometry relative="1" as="geometry">
            <mxPoint x="289" y="859" as="targetPoint" />
            <Array as="points">
              <mxPoint x="290" y="297" />
              <mxPoint x="290" y="849" />
            </Array>
          </mxGeometry>
        </mxCell>
        <mxCell id="ta6XSB1Axet3nMUNqBAB-5" value="&lt;span style=&quot;font-size: 18px;&quot;&gt;Hitung Total&lt;/span&gt;" style="shape=parallelogram;perimeter=parallelogramPerimeter;whiteSpace=wrap;html=1;fixedSize=1;rounded=1;labelBackgroundColor=none;fillColor=#F45B69;strokeColor=#FFFFFF;fontColor=#FFFFFF;" vertex="1" parent="WIyWlLk6GJQsqaUBKTNV-1">
          <mxGeometry x="344.5" y="267" width="135" height="60" as="geometry" />
        </mxCell>
        <mxCell id="ta6XSB1Axet3nMUNqBAB-10" value="" style="edgeStyle=orthogonalEdgeStyle;rounded=0;orthogonalLoop=1;jettySize=auto;html=1;strokeColor=#FFFFFF;" edge="1" parent="WIyWlLk6GJQsqaUBKTNV-1" source="ta6XSB1Axet3nMUNqBAB-7" target="ta6XSB1Axet3nMUNqBAB-8">
          <mxGeometry relative="1" as="geometry" />
        </mxCell>
        <mxCell id="ta6XSB1Axet3nMUNqBAB-7" value="&lt;font style=&quot;font-size: 18px;&quot;&gt;Jenis Barang&lt;/font&gt;" style="whiteSpace=wrap;html=1;dashed=0;rounded=1;labelBackgroundColor=none;fillColor=#F45B69;strokeColor=#FFFFFF;fontColor=#FFFFFF;" vertex="1" parent="WIyWlLk6GJQsqaUBKTNV-1">
          <mxGeometry x="352" y="389" width="120" height="60" as="geometry" />
        </mxCell>
        <mxCell id="ta6XSB1Axet3nMUNqBAB-11" value="" style="edgeStyle=orthogonalEdgeStyle;rounded=0;orthogonalLoop=1;jettySize=auto;html=1;strokeColor=#FFFFFF;" edge="1" parent="WIyWlLk6GJQsqaUBKTNV-1" source="ta6XSB1Axet3nMUNqBAB-8" target="wWsB43tYdhF1dsKAu8T7-20">
          <mxGeometry relative="1" as="geometry" />
        </mxCell>
        <mxCell id="ta6XSB1Axet3nMUNqBAB-8" value="&lt;font style=&quot;font-size: 18px;&quot;&gt;Quantity Barang&lt;/font&gt;" style="whiteSpace=wrap;html=1;dashed=0;rounded=1;labelBackgroundColor=none;fillColor=#F45B69;strokeColor=#FFFFFF;fontColor=#FFFFFF;" vertex="1" parent="WIyWlLk6GJQsqaUBKTNV-1">
          <mxGeometry x="352" y="493" width="120" height="60" as="geometry" />
        </mxCell>
        <mxCell id="ta6XSB1Axet3nMUNqBAB-18" value="" style="edgeStyle=orthogonalEdgeStyle;rounded=0;orthogonalLoop=1;jettySize=auto;html=1;strokeColor=#FFFFFF;" edge="1" parent="WIyWlLk6GJQsqaUBKTNV-1" source="ta6XSB1Axet3nMUNqBAB-13" target="ta6XSB1Axet3nMUNqBAB-17">
          <mxGeometry relative="1" as="geometry" />
        </mxCell>
        <mxCell id="ta6XSB1Axet3nMUNqBAB-13" value="&lt;span style=&quot;font-size: 18px;&quot;&gt;Harga Akhir&lt;br&gt;Total Pembelian&lt;br&gt;&lt;/span&gt;" style="shape=parallelogram;perimeter=parallelogramPerimeter;whiteSpace=wrap;html=1;fixedSize=1;rounded=1;labelBackgroundColor=none;fillColor=#F45B69;strokeColor=#FFFFFF;fontColor=#FFFFFF;" vertex="1" parent="WIyWlLk6GJQsqaUBKTNV-1">
          <mxGeometry x="329.75" y="819" width="164.5" height="60" as="geometry" />
        </mxCell>
        <mxCell id="ta6XSB1Axet3nMUNqBAB-16" value="&lt;font style=&quot;font-size: 18px;&quot;&gt;Tidak&lt;/font&gt;" style="text;html=1;strokeColor=none;fillColor=none;align=center;verticalAlign=middle;whiteSpace=wrap;rounded=1;labelBackgroundColor=none;fontColor=#FFFFFF;" vertex="1" parent="WIyWlLk6GJQsqaUBKTNV-1">
          <mxGeometry x="412" y="776" width="60" height="30" as="geometry" />
        </mxCell>
        <mxCell id="ta6XSB1Axet3nMUNqBAB-19" value="" style="edgeStyle=orthogonalEdgeStyle;rounded=0;orthogonalLoop=1;jettySize=auto;html=1;strokeColor=#FFFFFF;" edge="1" parent="WIyWlLk6GJQsqaUBKTNV-1" source="ta6XSB1Axet3nMUNqBAB-17" target="wWsB43tYdhF1dsKAu8T7-33">
          <mxGeometry relative="1" as="geometry" />
        </mxCell>
        <mxCell id="ta6XSB1Axet3nMUNqBAB-17" value="&lt;font style=&quot;font-size: 18px;&quot;&gt;Bayar&lt;/font&gt;" style="whiteSpace=wrap;html=1;dashed=0;rounded=1;labelBackgroundColor=none;fillColor=#F45B69;strokeColor=#FFFFFF;fontColor=#FFFFFF;" vertex="1" parent="WIyWlLk6GJQsqaUBKTNV-1">
          <mxGeometry x="352" y="929" width="120" height="60" as="geometry" />
        </mxCell>
        <mxCell id="ta6XSB1Axet3nMUNqBAB-20" value="Tugas 2&lt;br&gt;Evan" style="text;strokeColor=none;fillColor=none;html=1;fontSize=24;fontStyle=1;verticalAlign=middle;align=left;fontColor=#FF66B3;" vertex="1" parent="WIyWlLk6GJQsqaUBKTNV-1">
          <mxGeometry x="90" y="20" width="120" height="50" as="geometry" />
        </mxCell>
      </root>
    </mxGraphModel>
  </diagram>
</mxfile>
